<svg width="25" height="25" viewBox="0 0 25 25" fill="none" xmlns="http://www.w3.org/2000/svg">
<path d="M8.69843 18.325C7.65372 18.325 6.80845 19.18 6.80845 20.225C6.80845 21.27 7.65372 22.125 8.69843 22.125C9.74314 22.125 10.5979 21.27 10.5979 20.225C10.5979 19.18 9.74314 18.325 8.69843 18.325ZM3 4.075C3 4.5975 3.42738 5.025 3.94974 5.025H4.89948L8.31854 12.2355L7.03639 14.5535C6.34308 15.8265 7.25483 17.375 8.69843 17.375H19.1456C19.6679 17.375 20.0953 16.9475 20.0953 16.425C20.0953 15.9025 19.6679 15.475 19.1456 15.475H8.69843L9.74314 13.575H16.8187C17.531 13.575 18.1578 13.1855 18.4807 12.5965L21.8808 6.431C21.9608 6.287 22.0019 6.1246 21.9999 5.95985C21.998 5.79511 21.953 5.63373 21.8695 5.4917C21.7861 5.34966 21.667 5.23189 21.524 5.15004C21.3811 5.06818 21.2192 5.02508 21.0545 5.025H6.9984L6.36207 3.6665C6.28574 3.50434 6.16481 3.36729 6.01343 3.27139C5.86205 3.17549 5.68649 3.12471 5.50731 3.125H3.94974C3.42738 3.125 3 3.5525 3 4.075ZM18.1958 18.325C17.1511 18.325 16.3058 19.18 16.3058 20.225C16.3058 21.27 17.1511 22.125 18.1958 22.125C19.2405 22.125 20.0953 21.27 20.0953 20.225C20.0953 19.18 19.2405 18.325 18.1958 18.325Z" fill="white"/>
</svg>
