<svg width="25" height="25" viewBox="0 0 25 25" fill="none" xmlns="http://www.w3.org/2000/svg">
<path d="M10.3143 4C11.9889 4 13.595 4.66525 14.7792 5.84941C15.9633 7.03357 16.6286 8.63963 16.6286 10.3143C16.6286 11.8783 16.0554 13.316 15.1131 14.4234L15.3754 14.6857H16.1429L21 19.5429L19.5429 21L14.6857 16.1429V15.3754L14.4234 15.1131C13.316 16.0554 11.8783 16.6286 10.3143 16.6286C8.63963 16.6286 7.03357 15.9633 5.84941 14.7792C4.66525 13.595 4 11.9889 4 10.3143C4 8.63963 4.66525 7.03357 5.84941 5.84941C7.03357 4.66525 8.63963 4 10.3143 4ZM10.3143 5.94286C7.88571 5.94286 5.94286 7.88571 5.94286 10.3143C5.94286 12.7429 7.88571 14.6857 10.3143 14.6857C12.7429 14.6857 14.6857 12.7429 14.6857 10.3143C14.6857 7.88571 12.7429 5.94286 10.3143 5.94286Z" fill="#8F8F8F"/>
</svg>
